<svg width="1787" height="1134" viewBox="0 0 1787 1134" fill="none" xmlns="http://www.w3.org/2000/svg">
<g clip-path="url(#clip0)">
<rect width="1786.19" height="1132.65" transform="matrix(1 -0.00043348 0.000491806 1 0 0.774414)" fill="#D9D2F4"/>
<path d="M-666.502 -948.499C-233.925 -1052.1 1904 419.5 433.77 1292.83L347.946 1339.75L99.9999 1483.5L-1029 1022C-655.635 1022 772.395 690.285 -334.507 -6.5003L-666.502 -948.499Z" fill="#4B2ABC"/>
<path style="mix-blend-mode:multiply" opacity="0.5" d="M345.993 -175.001L659.209 -174.936C707.425 -78.6075 754.265 49.9192 788.985 220.403C901.872 774.705 678.502 1128.6 584.453 687.088C510.299 338.966 392.508 -33.1287 345.993 -175.001Z" fill="url(#paint0_linear)"/>
<path style="mix-blend-mode:multiply" opacity="0.5" d="M200.485 787.232C158.876 677.298 121.024 248.185 -284 -69.8118L-224.578 -96.431C130.223 -36.4947 614.552 150.276 366.136 850.188L273.115 972.193L200.485 787.232Z" fill="url(#paint1_linear)"/>
<path style="mix-blend-mode:multiply" opacity="0.5" d="M558.1 897.681L496.239 -29.983L133.996 -29.8788C133.459 -15.9628 217.527 104.628 217.527 104.628C461.877 183.882 525.644 792.128 558.1 897.681Z" fill="url(#paint2_linear)"/>
<path style="mix-blend-mode:multiply" opacity="0.5" d="M132.865 1403.61L456.474 1211.14L565.11 949.583L565.037 396.004L562.391 396.004L518.538 604.748L26.5496 1074.96C25.4777 1082.51 27.3821 1173.33 27.3821 1173.33C451.619 1227.8 77.464 1344.66 132.865 1403.61Z" fill="url(#paint3_linear)"/>
<path style="mix-blend-mode:multiply" opacity="0.5" d="M636.162 234L880.329 269.696C905.546 330.662 925.555 410.015 930.727 512.151C947.543 844.234 727.959 1022.62 711.343 757.637C698.243 548.707 654.203 321.002 636.162 234Z" fill="url(#paint4_linear)"/>
</g>
<defs>
<linearGradient id="paint0_linear" x1="785.458" y1="1089.97" x2="338.989" y2="921.182" gradientUnits="userSpaceOnUse">
<stop stop-color="#A2A5A7"/>
<stop offset="0.34" stop-color="#BFC1C2"/>
<stop offset="1" stop-color="white"/>
</linearGradient>
<linearGradient id="paint1_linear" x1="590.82" y1="844.499" x2="-127.672" y2="478.429" gradientUnits="userSpaceOnUse">
<stop stop-color="#A2A5A7"/>
<stop offset="0.34" stop-color="#BFC1C2"/>
<stop offset="1" stop-color="white"/>
</linearGradient>
<linearGradient id="paint2_linear" x1="31311.3" y1="-642250" x2="-314780" y2="-817318" gradientUnits="userSpaceOnUse">
<stop stop-color="#A2A5A7"/>
<stop offset="0.34" stop-color="#BFC1C2"/>
<stop offset="1" stop-color="white"/>
</linearGradient>
<linearGradient id="paint3_linear" x1="60670.5" y1="-347004" x2="-141002" y2="-691597" gradientUnits="userSpaceOnUse">
<stop stop-color="#A2A5A7"/>
<stop offset="0.34" stop-color="#BFC1C2"/>
<stop offset="1" stop-color="white"/>
</linearGradient>
<linearGradient id="paint4_linear" x1="816.302" y1="1012.55" x2="544.044" y2="796.351" gradientUnits="userSpaceOnUse">
<stop stop-color="white"/>
<stop offset="0.9999" stop-color="#D8D9DA"/>
<stop offset="1" stop-color="white"/>
</linearGradient>
<clipPath id="clip0">
<rect width="1786.19" height="1132.65" fill="white" transform="matrix(1 -0.00043348 0.000491806 1 0 0.774414)"/>
</clipPath>
</defs>
</svg>
